<svg xmlns="http://www.w3.org/2000/svg" xmlns:xlink="http://www.w3.org/1999/xlink" width="200" zoomAndPan="magnify" viewBox="0 0 150 149.999998" height="200" preserveAspectRatio="xMidYMid meet" version="1.0"><defs><g/><clipPath id="cedae6f4fa"><path d="M 3.414062 42.832031 L 146.585938 42.832031 L 146.585938 66 L 3.414062 66 Z M 3.414062 42.832031 " clip-rule="nonzero"/></clipPath><clipPath id="24483af5e0"><path d="M 3.414062 84 L 146.585938 84 L 146.585938 107.167969 L 3.414062 107.167969 Z M 3.414062 84 " clip-rule="nonzero"/></clipPath><clipPath id="e7ed603cba"><path d="M 2.515625 41.929688 L 147.265625 41.929688 L 147.265625 107.929688 L 2.515625 107.929688 Z M 2.515625 41.929688 " clip-rule="nonzero"/></clipPath></defs><g clip-path="url(#cedae6f4fa)"><path fill="#2b2929" d="M 3.851562 65.261719 L 3.851562 42.929688 L 145.921875 42.929688 L 145.921875 65.261719 L 147.257812 65.261719 L 147.257812 41.929688 L 2.519531 41.929688 L 2.519531 65.261719 L 3.851562 65.261719 " fill-opacity="1" fill-rule="nonzero"/></g><g clip-path="url(#24483af5e0)"><path fill="#2b2929" d="M 145.921875 84.597656 L 145.921875 106.929688 L 3.851562 106.929688 L 3.851562 84.597656 L 2.519531 84.597656 L 2.519531 107.929688 L 147.257812 107.929688 L 147.257812 84.597656 L 145.921875 84.597656 " fill-opacity="1" fill-rule="nonzero"/></g><g clip-path="url(#e7ed603cba)"><path stroke-linecap="butt" transform="matrix(0.75, 0, 0, 0.75, 2.514435, 41.930548)" fill="none" stroke-linejoin="miter" d="M 0.00158676 -0.00114781 L 0.00158676 88.170732 L 193.282848 88.170732 L 193.282848 -0.00114781 L 0.00158676 -0.00114781 " stroke="#ffffff" stroke-width="6" stroke-opacity="1" stroke-miterlimit="4"/></g><g fill="#ffffff" fill-opacity="1"><g transform="translate(21.040435, 88.041295)"><g><path d="M 21.984375 -27.421875 L 21.984375 -22.875 L 14.078125 -22.875 L 14.078125 0 L 8.671875 0 L 8.671875 -22.875 L 0.75 -22.875 L 0.75 -27.421875 Z M 21.984375 -27.421875 "/></g></g></g><g fill="#ffffff" fill-opacity="1"><g transform="translate(47.580214, 88.041295)"><g><path d="M 8.984375 -27.421875 L 8.984375 -4.546875 L 21.3125 -4.546875 L 21.3125 0 L 3.5625 0 L 3.5625 -27.421875 Z M 8.984375 -27.421875 "/></g></g></g><g fill="#ffffff" fill-opacity="1"><g transform="translate(73.594773, 88.041295)"><g><path d="M 13.4375 -27.421875 C 17.882812 -27.421875 21.28125 -26.269531 23.625 -23.96875 C 25.96875 -21.675781 27.140625 -18.257812 27.140625 -13.71875 C 27.140625 -9.1875 25.96875 -5.765625 23.625 -3.453125 C 21.28125 -1.148438 17.882812 0 13.4375 0 L 3.5625 0 L 3.5625 -27.421875 Z M 13.109375 -4.5625 C 15.941406 -4.5625 18.054688 -5.28125 19.453125 -6.71875 C 20.859375 -8.164062 21.5625 -10.5 21.5625 -13.71875 C 21.5625 -16.925781 20.859375 -19.253906 19.453125 -20.703125 C 18.054688 -22.148438 15.941406 -22.875 13.109375 -22.875 L 8.984375 -22.875 L 8.984375 -4.5625 Z M 13.109375 -4.5625 "/></g></g></g><g fill="#ffffff" fill-opacity="1"><g transform="translate(106.718562, 88.041295)"><g><path d="M 8.984375 -27.421875 L 8.984375 -4.546875 L 21.3125 -4.546875 L 21.3125 0 L 3.5625 0 L 3.5625 -27.421875 Z M 8.984375 -27.421875 "/></g></g></g></svg>